<svg xmlns="http://www.w3.org/2000/svg" xmlns:xlink="http://www.w3.org/1999/xlink" width="16" height="16" viewBox="0 0 16 16"><defs><linearGradient id="b" x1="-663.093" x2="-651" y1="1268.362" y2="1268.362" gradientTransform="translate(665.092 -224)" gradientUnits="userSpaceOnUse" xlink:href="#a"/><linearGradient id="a"><stop offset="0" stop-color="#fcd635"/><stop offset="1" stop-color="#f7a928"/></linearGradient></defs><path fill="url(#b)" d="m 14.092498,1044.074 c 0,3.2247 -2.57953,5.804 -5.803971,5.804 -0.737,0 -1.47405,-0.1828 -2.11891,-0.4605 -0.0923,0 -0.18411,0 -0.18411,0 -2.0268104,0.5528 -3.0402004,0.8292 -3.5929604,0.921 -0.27638,0.091 -0.46062,-0.091 -0.36865,-0.37 0.1841,-0.4609 0.36865,-1.4741 0.92124,-3.5006 0,-0.091 0,-0.1828 0,-0.1828 -0.27638,-0.6446 -0.36866,-1.382 -0.36866,-2.2111 0,-3.132 2.5795404,-5.7117 5.7118304,-5.7117 3.224441,0 5.803971,2.5797 5.803971,5.7117 z" transform="translate(0 -1036.362)"/></svg>