<svg xmlns="http://www.w3.org/2000/svg" viewBox="0 0 478.5827 346.47268"><title>Asset 7</title><g id="Layer_2" data-name="Layer 2"><g id="Layer_1-2" data-name="Layer 1"><path d="M154.24558,344.54766c-15.03243-4.69937-28.52-9.5005-44.74577-18.61247-16.73457-9.39874-91.07342-54.126-100.74043-131.5361a147.656,147.656,0,0,1,6.161-63.053c2.988-8.76044,9.186-26.35532,24.829-43.75594,19.149-21.31368,40.99923-29.57458,53.81149-34.2462A155.26743,155.26743,0,0,1,153.89405,44.38c11.61892.37928,32.12778,1.23034,55.43962,11.41539,15.20819,6.642,24.66244,14.21837,38.594,25.54126,22.07224,17.95567,24.977,25.43026,63.58951,62.50717,10.60133,10.1758,19.31552,18.19618,32.61806,26.09631,9.223,5.47643,16.67907,8.53842,30.4349,14.12586,33.81141,13.73733,43.43825,16.5188,54.50212,24.25241,21.51719,15.05094,20.1235,31.46472,21.04857,34.9985a69.49787,69.49787,0,0,1,1.63738,27.72443c-2.82147,18.56621-12.82151,30.70317-19.02875,38.04825a104.624,104.624,0,0,1-30.43489,24.45892,194.49406,194.49406,0,0,1-24.94,10.99912Z" fill="#f9e0c0"/><path d="M106.52051,331.42483C84.31543,318.95022,11.10645,272.17971,1.35742,194.06643A154.85451,154.85451,0,0,1,7.7959,128.18362c2.77246-8.13086,9.26465-27.17188,25.94824-45.73633C54.17578,59.71194,77.4668,51.21682,89.98047,46.65334a161.99368,161.99368,0,0,1,63.01758-9.36914c10.73242.34864,33.0625,1.07422,57.9209,11.92774l-.3711.84765c-24.69433-10.78222-46.08691-11.47753-57.5791-11.85156a161.1022,161.1022,0,0,0-62.67187,9.31445C77.86035,52.05862,54.71,60.502,34.43164,83.06643,17.875,101.48928,11.42578,120.4053,8.6709,128.48245A153.88251,153.88251,0,0,0,2.27539,193.9512c9.69629,77.68359,82.58887,124.24609,104.69824,136.667Z" fill="#f4c5a2"/><rect x="256.00862" y="339.18243" width="13.7419" height="6.04644" fill="#e19974"/><rect x="71.95801" y="205.1426" width="7.07324" height="0.85352" fill="#fff"/><rect x="71.95801" y="201.72561" width="7.07324" height="0.85352" fill="#fff"/><rect x="71.95801" y="170.97073" width="7.07324" height="0.85352" fill="#fff"/><rect x="71.95801" y="167.55276" width="7.07324" height="0.85352" fill="#fff"/><path d="M130.50684,187.82424c-5.1377,0-16.05762-7.93359-17.36133-8.89355a.84437.84437,0,0,1,1.00195-1.35938c4.999,3.68555,14.01367,9.27149,16.874,8.51075a.84416.84416,0,0,1,.42188,1.63476A3.75953,3.75953,0,0,1,130.50684,187.82424Z" fill="#8b9d36"/><path d="M130.4248,188.4551a.84384.84384,0,0,1-.84082-.78222l-2.0371-27.93165a.844.844,0,1,1,1.68359-.123l2.03711,27.93164a.84411.84411,0,0,1-.78028.90332C130.46582,188.45413,130.44531,188.4551,130.4248,188.4551Z" fill="#8b9d36"/><path d="M138.99512,189.19729a.85439.85439,0,0,1-.14844-.0127.84411.84411,0,0,1-.68359-.97851c.09277-.52344,2.40722-12.88672,14.17187-18.376a.84365.84365,0,0,1,.71289,1.5293c-10.97656,5.12207-13.20117,17.02148-13.22265,17.1416A.84372.84372,0,0,1,138.99512,189.19729Z" fill="#8b9d36"/><path d="M137.98563,185.47489c-.68617-1.34383-4.37361-1.34569-6.72827.30532a6.448,6.448,0,0,0-2.26791,2.976c-.40092,1.03271-1.0426,2.68518-.15114,3.81539a3.34542,3.34542,0,0,0,3.70425.68661,18.05556,18.05556,0,0,0,3.17516-3.12857C137.08372,188.40019,138.53872,186.55811,137.98563,185.47489Z" fill="#5e7c24"/><path d="M140.85852,185.32233c-.257.67482.25285,1.44837,1.20952,2.89963a13.93155,13.93155,0,0,0,3.3263,3.51028,3.96855,3.96855,0,0,0,4.68718.53406,3.79666,3.79666,0,0,0,1.73861-3.205c-.01558-1.977-1.70478-3.2004-2.34338-3.66283C146.384,183.15858,141.47989,183.69119,140.85852,185.32233Z" fill="#5e7c24"/><path d="M149.93017,172.65529c.22538-.38419.80943-.189,2.11678-.38171a24.34642,24.34642,0,0,0,3.25083-.99193,12.51023,12.51023,0,0,1,2.79721-.68682c.3962.00186,2.63561.012,3.40177,1.5262.80266,1.58622-.68331,3.49557-.7559,3.58645-1.43655,1.79488-3.89087,1.70732-4.68718,1.67875a7.23636,7.23636,0,0,1-5.06512-2.44175C150.80932,174.7439,149.53869,173.32224,149.93017,172.65529Z" fill="#5e7c24"/><path d="M129.29193,165.25324c-.79794-.40178-.331-2.95449-.07567-4.34945a25.8904,25.8904,0,0,1,1.43634-4.34965c1.32293-3.48543,1.6248-3.86093,2.11677-4.04412a3.16375,3.16375,0,0,1,3.47765,1.60237c.87464,1.69242-.46614,3.832-1.89,6.10458C132.98962,162.39936,130.32981,165.7757,129.29193,165.25324Z" fill="#5e7c24"/><path d="M128.98945,171.96847c.58692-.95509-.493-2.82284-1.58748-3.81539a7.04336,7.04336,0,0,0-3.47765-1.44982c-1.81818-.43821-3.8195-.92052-4.38469-.07638-.53893.80481.51536,2.38586.75611,2.74707a6.683,6.683,0,0,0,3.09949,2.36558C125.0106,172.40813,128.23211,173.20073,128.98945,171.96847Z" fill="#c4ce6e"/><path d="M129.06512,179.37031c.02153-.75989-1.07705-.91742-3.3263-2.74707-1.78558-1.45251-1.83644-1.95759-2.87288-2.2892-1.58666-.50756-3.65791-.02422-4.00674.99194-.08531.24881-.07321.54585,1.2852,2.74707,1.05674,1.71229,1.59568,2.57506,2.11677,2.89963a4.96664,4.96664,0,0,0,3.77993.3815C126.99,181.12959,129.036,180.40012,129.06512,179.37031Z" fill="#5e7c24"/><path d="M129.89182,170.58767c-.74093-.839.00461-2.86636.91363-4.03415a7.07093,7.07093,0,0,1,3.17875-2.032c1.71641-.74737,3.6057-1.57,4.30631-.83654.66806.69924-.10109,2.43978-.2767,2.83741a6.71428,6.71428,0,0,1-2.65017,2.86846C133.88629,170.33,130.84787,171.67007,129.89182,170.58767Z" fill="#5e7c24"/><path d="M130.44006,178.47326c-.1507-.74482.90466-1.09074,2.80859-3.28366,1.51144-1.74087,1.47547-2.24725,2.44-2.75387,1.47651-.77548,3.59925-.659,4.11605.28148.12644.23029.16514.525-.79791,2.92927-.7492,1.87024-1.13307,2.81372-1.59109,3.22394a4.974,4.974,0,0,1-3.65857,1.0321C132.78408,179.846,130.64424,179.48267,130.44006,178.47326Z" fill="#5e7c24"/><path d="M118.33011,182.4225c-.106-.828-1.46956-1.28505-3.09949-1.83132-1.47264-.49348-2.64177-.88553-4.00674-.45788-.24137.07556-2.3885.7481-2.5704,2.36558-.16323,1.45085,1.38466,2.51006,1.512,2.59451a4.57315,4.57315,0,0,0,3.55312.3815C115.84441,185.06586,118.48617,183.64047,118.33011,182.4225Z" fill="#5e7c24"/><path d="M124.45362,186.23789c-1.13837-.81226-3.28693.56552-4.30922,1.22108a9.03706,9.03706,0,0,0-2.64587,2.59431c-.78748,1.18175-1.53682,2.30658-1.13406,3.28133.57913,1.40117,3.07919,1.38027,3.402,1.37344a5.43714,5.43714,0,0,0,3.70425-1.67876,5.78358,5.78358,0,0,0,1.43654-2.89963C125.04485,189.4948,125.577,187.03959,124.45362,186.23789Z" fill="#c4ce6e"/><path d="M115.38176,178.45455c-.64045-.93129-.4161-1.5914-.68044-3.205-.42019-2.56513-1.31411-2.89363-.98271-4.19689.26085-1.02568,1.14472-2.12049,2.11677-2.13664,1.36149-.02277,2.23736,2.08158,2.41906,2.51814.66074,1.58726.41712,2.971,0,5.34158-.27234,1.54752-.48008,2.65538-1.13386,2.82346C116.48854,179.76174,115.73613,178.96977,115.38176,178.45455Z" fill="#8b9d36"/><path d="M144.336,178.22561c.202-.57152,1.27269-.65805,2.5704-.763,1.62131-.131,2.83658-.22935,4.00673.53406.18006.11737,2.07453,1.389,1.73862,2.89984-.2625,1.18051-1.72939,1.79985-2.797,1.83131-1.15846.03415-1.94615-.62079-3.402-1.83131C145.30575,179.94287,144.0872,178.9294,144.336,178.22561Z" fill="#8b9d36"/><path d="M146.22592,173.87616c-.291-.06624-.30905-.47154-.68044-1.60258-.82993-2.52682-1.47961-2.75638-1.36066-3.81539.13166-1.17161,1.09858-2.41919,1.96543-2.36557.945.05837,1.51016,1.64667,1.73882,2.2894a4.95036,4.95036,0,0,1,.30248,2.36557C147.97951,172.38805,146.85693,174.02,146.22592,173.87616Z" fill="#5e7c24"/><path d="M127.47744,162.88787c-.44112.62555-2.94569-.1153-4.6115-1.60258-.42533-.37963-2.3077-2.06046-1.81429-3.66283a1.88769,1.88769,0,0,1,1.512-1.37343c.70627-.01739,1.16543.70006,2.34358,2.44175C127.32978,162.27267,127.67082,162.6136,127.47744,162.88787Z" fill="#8b9d36"/><path d="M141.23647,179.75181c-1.26859.34527-2.92846-2.33391-3.3263-2.976a9.84442,9.84442,0,0,1-1.512-5.49414c.05434-1.21343.15339-3.42582,1.43633-3.968,1.22922-.51936,2.892.77045,3.70426,1.75493,1.60286,1.94226,1.34795,4.455,1.13406,6.56246C142.50629,177.273,142.28358,179.46677,141.23647,179.75181Z" fill="#c4ce6e"/><path d="M141.42037,208.90924H128.955l-4.01024-21.27555a.84562.84562,0,0,1,.82518-1.00633h18.83546a.84562.84562,0,0,1,.82518,1.00633Z" fill="#935b50"/><path d="M145.14088,189.171l.28977-1.53725a.84563.84563,0,0,0-.82518-1.00635H125.77a.84563.84563,0,0,0-.82518,1.00635l.28977,1.53725Z" fill="#d6694b"/><polygon points="129.951 202.884 127.318 200.226 129.951 197.568 132.585 200.226 129.951 202.884" fill="#d6694b"/><polygon points="135.218 202.884 132.585 200.226 135.218 197.568 137.851 200.226 135.218 202.884" fill="#d6694b"/><polygon points="140.424 202.884 137.79 200.226 140.424 197.568 143.057 200.226 140.424 202.884" fill="#d6694b"/><path d="M188.8513,182.682h44.2465a0,0,0,0,1,0,0v6.95719a0,0,0,0,1,0,0H188.8513a.72314.72314,0,0,1-.72314-.72314v-5.51091a.72314.72314,0,0,1,.72314-.72314Z" transform="translate(423.50621 2.61205) rotate(97.75988)" fill="#7ca1b1"/><rect x="212.76618" y="163.79971" width="0.83971" height="6.95727" transform="translate(18.65286 355.92397) rotate(-82.23954)" fill="#fff"/><rect x="212.31208" y="167.12979" width="0.83971" height="6.95727" transform="translate(14.9605 358.35444) rotate(-82.23954)" fill="#fff"/><rect x="208.2281" y="197.10146" width="0.83971" height="6.95727" transform="translate(-18.2692 380.23241) rotate(-82.23954)" fill="#fff"/><rect x="207.77399" y="200.43154" width="0.83971" height="6.95727" transform="translate(-21.96156 382.66288) rotate(-82.23954)" fill="#fff"/><path d="M194.76607,164.66274l0,44.2465h-6.95719l0-44.2465a.72312.72312,0,0,1,.72313-.72313h5.51092A.72314.72314,0,0,1,194.76607,164.66274Z" fill="#f65b2b"/><rect x="187.80859" y="205.06155" width="6.95703" height="0.83984" fill="#fff"/><rect x="187.80859" y="201.70022" width="6.95703" height="0.83984" fill="#fff"/><rect x="187.80859" y="171.4512" width="6.95703" height="0.83984" fill="#fff"/><rect x="187.80859" y="168.09084" width="6.95703" height="0.83984" fill="#fff"/><path d="M194.75765,208.90924V166.67931a.72314.72314,0,0,1,.72314-.72313h7.9308a.72314.72314,0,0,1,.72314.72313v42.22993Z" fill="#ffba55"/><rect x="194.75781" y="203.62405" width="9.37695" height="0.83984" fill="#fff"/><rect x="189.41373" y="175.38367" width="20.06493" height="6.04973" transform="translate(377.85472 -21.03766) rotate(90)" fill="#fff"/><path d="M171.48741,164.66274l0,44.2465h6.95718l0-44.2465a.72312.72312,0,0,0-.72314-.72313h-5.51091A.72313.72313,0,0,0,171.48741,164.66274Z" fill="#ffba55"/><rect x="171.4873" y="205.06155" width="6.95703" height="0.83984" fill="#fff"/><rect x="171.4873" y="201.70022" width="6.95703" height="0.83984" fill="#fff"/><rect x="171.4873" y="171.4512" width="6.95703" height="0.83984" fill="#fff"/><rect x="171.4873" y="168.09084" width="6.95703" height="0.83984" fill="#fff"/><path d="M171.49582,208.90924V166.67931a.72313.72313,0,0,0-.72313-.72313h-7.9308a.72314.72314,0,0,0-.72314.72313v42.22993Z" fill="#f65b2b"/><rect x="162.11914" y="203.62405" width="9.37695" height="0.83984" fill="#fff"/><rect x="156.77482" y="175.38367" width="20.06493" height="6.04973" transform="translate(345.21582 11.60124) rotate(90)" fill="#fff"/><path d="M162.37335,182.74417h42.22992a0,0,0,0,1,0,0v9.37708a0,0,0,0,1,0,0H162.37335a.72314.72314,0,0,1-.72314-.72314v-7.9308A.72314.72314,0,0,1,162.37335,182.74417Z" transform="translate(370.55944 4.30597) rotate(90)" fill="#7ca1b1"/><rect x="178.43848" y="203.62405" width="9.37695" height="0.83984" fill="#fff"/><rect x="173.09428" y="175.38367" width="20.06493" height="6.04973" transform="translate(361.53527 -4.71821) rotate(90)" fill="#fff"/><path d="M299.18985,153.75547s-13.75215,16.53807-13.321,3.06932Z" fill="#f9977a"/><path d="M298.16747,278.93422s-3.7539,28.07105-1.64232,28.8024,56.20579.54651,46.52528-3.57358l-16.01093-5.84351a15.5091,15.5091,0,0,1-10.14759-13.3986l-.66806-8.82648Z" fill="#f9977a"/><path d="M333.44109,300.65592l-16.56282,3.14744c-1.25671-2.007-5.98686-7.80009-20.23493-11.33975a.75981.75981,0,0,0-.93691.66833l-.19531,2.16591a.75726.75726,0,0,0,.563.80041,46.03781,46.03781,0,0,1,15.90039,7.78258l-16.09217.25435c-1.30743,2.869.34307,7.08433.34307,7.08433,26.15387,1.53019,50.50963-2.33158,54.131-4.82163S333.44109,300.65592,333.44109,300.65592Z" fill="#f73943"/><path d="M316.67944,251.60191s3.87017,28.05525,6.10033,28.19683,54.31494-14.46638,43.88616-15.85487l-16.98954-1.36079a15.50914,15.50914,0,0,1-13.354-10.2062l-2.99834-8.32844Z" fill="#f9977a"/><path d="M356.46925,263.12716l-15.12307,7.45158c-1.74656-1.5991-7.85063-5.92044-22.52664-5.53112a.75981.75981,0,0,0-.72467.894l.38952,2.13953a.75728.75728,0,0,0,.75608.62124,46.03771,46.03771,0,0,1,17.40027,3.25909l-15.44122,4.53778c-.49473,3.11382,2.22041,6.73611,2.22041,6.73611,25.61436-5.50189,48.05744-15.72072,50.8834-19.08657S356.46925,263.12716,356.46925,263.12716Z" fill="#f73943"/><path d="M237.42051,106.38582c8.58008-3.81049.59-9.73965.59-9.73965l-.12619-.5155a.65769.65769,0,0,1,.71133-.81171c1.84749.20835,5.64851.23986,4.35057-3.30512a3.18169,3.18169,0,0,1,.96574-2.68645.89847.89847,0,0,0-.09056-1.37894,9.12426,9.12426,0,0,1-2.692-2.7079.63384.63384,0,0,1,.63573-.91969l3.56421.40124a.51121.51121,0,0,0,.56288-.58288l-.06875-.46434a.54525.54525,0,0,1,.46882-.62054l1.22345-.15963a1.29662,1.29662,0,0,0,1.02509-1.794l-1.95565-4.58942a3.58116,3.58116,0,0,1-.1031-2.52872c.803-2.43293,2.29038-8.08729,1.0118-13.61073,0,0-3.72646,7.8484-16.53188,15.98133,0,0-1.18794-8.84647-7.26854-3.80072,0,0-2.37417,1.87558-1.30094,8.30054l-2.5389,2.16875a10.37063,10.37063,0,0,0-3.469,6.08073c-.60982,3.43955-2.67821,8.91373-3.96586,10.27864C212.41873,99.38109,228.84043,110.1963,237.42051,106.38582Z" fill="#f9977a"/><path d="M223.14918,82.87525s.8464,24.33094,14.987,14.3644l-.25186-1.109c-.10891-.44489.51636-.80126.51636-.80126C224.7049,96.08636,223.14918,82.87525,223.14918,82.87525Z" fill="#dd765e"/><path d="M238.97461,74.14553a.50277.50277,0,0,1-.25293-.9375,19.22618,19.22618,0,0,1,7.85352-2.29394.48856.48856,0,0,1,.52636.47754.50237.50237,0,0,1-.47754.52636,18.53567,18.53567,0,0,0-7.39843,2.15918A.50063.50063,0,0,1,238.97461,74.14553Z" fill="#350500"/><path d="M241.63623,75.2604a3.59024,3.59024,0,0,1,1.875-.91406,2.98337,2.98337,0,0,1,2.062.33105c-.35693.016-.68359.00134-1.01147.037-.32544.038-.64649.06164-.96582.12695C242.95239,74.94546,242.32324,75.11013,241.63623,75.2604Z" fill="#350500"/><ellipse cx="244.13617" cy="75.62454" rx="0.6332" ry="1.10534" transform="translate(-8.44367 36.57374) rotate(-8.4223)" fill="#050505"/><path d="M223.95028,74.69888a4.26307,4.26307,0,0,1,2.76194-1.18716,2.843,2.843,0,0,1,1.51652.41829,2.62535,2.62535,0,0,1,.99126,1.157,4.48429,4.48429,0,0,0-1.17674-.81151,3.27414,3.27414,0,0,0-1.32478-.26163A8.35656,8.35656,0,0,0,223.95028,74.69888Z" fill="#dd765e"/><path d="M224.60316,79.10827a9.78861,9.78861,0,0,0,1.60935-2.47378,5.70924,5.70924,0,0,0,.41517-1.38181,8.71469,8.71469,0,0,0,.11022-1.4896,3.61185,3.61185,0,0,1,.28006,1.528,4.05681,4.05681,0,0,1-.344,1.54177,4.88889,4.88889,0,0,1-.85108,1.32092A4.177,4.177,0,0,1,224.60316,79.10827Z" fill="#dd765e"/><path d="M247.49389,60.37182s-1.35712,7.303-16.53188,15.98133c0,0-1.21939-5.19165-4.63848-4.9592a3.36249,3.36249,0,0,0-2.70953,1.85191,11.56926,11.56926,0,0,0-1.22147,7.60711,26.40535,26.40535,0,0,1-.7421,8.26352,19.31933,19.31933,0,0,1-3.948,6.92459c-1.969,2.32851-15.13423-13.67021-9.103-29.91036C216.36552,45.21914,243.07185,46.15186,247.49389,60.37182Z" fill="#84382a"/><circle cx="223.59536" cy="82.19069" r="2.90155" fill="#f73c4f"/><path d="M339.15469,248.4725l-2.98906-32.71543a39.25531,39.25531,0,0,0-21.12888-31.65432,36.58729,36.58729,0,0,0-8.70856-3.08729,44.2175,44.2175,0,0,1-6.72483-1.93308l-40.35185-15.66447-.77689-5.24694S226.5253,178.98744,217.327,179.63445c0,0-2.03659,32.11588,50.85986,29.64574,0,0,7.99339,26.71128,26.1653,79.42764l25.69278-5.47242-5.93373-22.83317S334.49023,255.5975,339.15469,248.4725Z" fill="#8b9d36"/><path d="M299.43091,179.0154c-7.823-1.33374-15.573-2.88049-23.34375-4.29516q-5.82568-1.06311-11.67041-1.96216c-1.95239-.25305-3.90332-.5365-5.86475-.70288-.981-.14209-1.95971-.13513-2.94629-.20252a9.723,9.723,0,0,0-1.47509.00586l-1.48707.04456a41.52537,41.52537,0,0,1,11.907-.287c3.96191.3667,7.8916.96839,11.80053,1.65552A184.60323,184.60323,0,0,1,299.43091,179.0154Z" fill="#5e7c24"/><path d="M314.11133,260.40225c-2.16236-7.69312-3.88721-15.47535-5.50513-23.27955-1.57422-7.81311-3.03857-15.64868-4.06225-23.57421,2.16577,7.69238,3.89013,15.47473,5.50512,23.27954C311.62012,244.64175,313.08423,252.47732,314.11133,260.40225Z" fill="#5e7c24"/><path d="M314.29419,214.071l-11.51514-1.53467c-3.83349-.49927-7.66113-1.00977-11.49609-1.44739q-5.75025-.67108-11.51611-1.16577c-3.84742-.28491-7.69678-.541-11.57984-.64294a100.2075,100.2075,0,0,1,23.26636.34606A148.52438,148.52438,0,0,1,314.29419,214.071Z" fill="#5e7c24"/><path d="M237.60872,96.91689s7.92661,24.56378-18.383-5.85727a40.31142,40.31142,0,0,0-13.20492,14.109c-5.12866,9.33852-9.62578,29.66493-4.692,55.74424,0,0,1.35935,11.595,12.04764,8.94009,0,0,.89323,8.44689,3.95056,9.78153,0,0,35.174-6.28042,41.14759-21.46348C258.47462,158.171,255.61564,107.47687,237.60872,96.91689Z" fill="#ffba55"/><path d="M218.198,144.474a58.72458,58.72458,0,0,0,3.03638-9.74572,76.11666,76.11666,0,0,0,1.3352-10.06983c.2146-3.38537.23364-6.78552.12891-10.19018-.136-3.40284-.33887-6.81543-.73389-10.2306a55.69428,55.69428,0,0,1,1.8811,10.15467,66.9305,66.9305,0,0,1,.19312,10.36194,53.67683,53.67683,0,0,1-1.69214,10.24694A36.65976,36.65976,0,0,1,218.198,144.474Z" fill="#e6952a"/><path d="M249.95044,153.71365c-5.86182,3.22-11.90381,6.03161-17.98975,8.74328-6.104,2.6709-12.25317,5.23938-18.58423,7.396,5.86036-3.22315,11.90235-6.03442,17.98975-8.74316C237.47144,158.44155,243.62085,155.87356,249.95044,153.71365Z" fill="#e6952a"/><path d="M245.49463,142.93459c-3.15942.41553-6.31275.79224-9.467,1.11219l-9.449.99182c-3.14648.32471-6.28613.69067-9.40991,1.12768-1.5603.22693-3.1189.46827-4.65625.79871a13.66905,13.66905,0,0,0-4.4458,1.51135,12.0829,12.0829,0,0,1,4.25488-2.20788,42.46941,42.46941,0,0,1,4.64429-1.23389,94.03612,94.03612,0,0,1,9.4563-1.46021A128.33473,128.33473,0,0,1,245.49463,142.93459Z" fill="#e6952a"/><path d="M228.65576,106.46414a11.29846,11.29846,0,0,1-.05347,3.13476,14.3907,14.3907,0,0,1-.76293,3.043,9.53995,9.53995,0,0,1-1.58033,2.79553,3.40141,3.40141,0,0,1-2.853,1.45532,4.57425,4.57425,0,0,0,1.90722-2.10888,24.21924,24.21924,0,0,0,1.148-2.66187C227.16943,110.283,227.76074,108.378,228.65576,106.46414Z" fill="#e6952a"/><path d="M216.23145,145.67873a7.866,7.866,0,0,0-2.01539-1.49182,13.56906,13.56906,0,0,0-2.2268-.92163c-.76489-.2666-1.56494-.47192-2.37891-.70471-.41284-.08667-.82471-.215-1.24536-.32934a10.7018,10.7018,0,0,1-1.28247-.401,9.68663,9.68663,0,0,1,1.32544-.32116,13.07308,13.07308,0,0,1,1.352-.0885,8.85346,8.85346,0,0,1,2.70044.44921,6.61022,6.61022,0,0,1,2.42773,1.38978A3.82358,3.82358,0,0,1,216.23145,145.67873Z" fill="#e6952a"/><polyline points="254.732 134.775 290.993 150.854 286.613 164.729 257.474 154.403" fill="#ffba55"/><path d="M264.7627,160.57717a2.94689,2.94689,0,0,1-.43165-5.86133L300.86621,149.25l14.791-33.69238a2.94681,2.94681,0,0,1,5.39648,2.36914l-15.44433,35.18164a2.94585,2.94585,0,0,1-2.2627,1.72949L265.20215,160.544A2.91389,2.91389,0,0,1,264.7627,160.57717Z" fill="#dd765e"/><ellipse cx="216.70269" cy="93.57928" rx="4.80971" ry="6.15817" transform="translate(-11.36932 32.74924) rotate(-8.4223)" fill="#84382a"/><ellipse cx="217.9191" cy="101.79468" rx="4.80971" ry="6.15817" transform="matrix(0.98922, -0.14647, 0.14647, 0.98922, -12.5595, 33.01601)" fill="#84382a"/><ellipse cx="218.987" cy="110.90392" rx="4.80971" ry="6.15817" transform="translate(-13.8822 33.27066) rotate(-8.4223)" fill="#84382a"/><ellipse cx="220.60844" cy="119.95792" rx="4.80971" ry="6.15817" transform="translate(-15.19083 33.60579) rotate(-8.4223)" fill="#84382a"/><path d="M217.27489,130.28177c.49815,3.36439,8.65117,9.65205,8.65117,9.65205s1.36266-7.6966.86451-11.061-3.03213-5.77636-5.65981-5.38729S216.77674,126.91738,217.27489,130.28177Z" fill="#84382a"/><path d="M218.40527,126.67288a1.47332,1.47332,0,0,1-.21386-2.93067l5.82617-.86328a1.47293,1.47293,0,0,1,.43164,2.91406l-5.82617.86328A1.37156,1.37156,0,0,1,218.40527,126.67288Z" fill="#f73c4f"/><path d="M255.22314,133.59744a55.5504,55.5504,0,0,1,1.34375,5.55407c.37549,1.86292.66578,3.738.93921,5.61524.24634,1.88073.47437,3.76379.61695,5.656a54.67837,54.67837,0,0,1,.20532,5.69776,55.59172,55.59172,0,0,1-1.34741-5.56385c-.37476-1.86157-.66431-3.7323-.93555-5.60546-.24414-1.87671-.47144-3.75538-.61353-5.64624A55.77693,55.77693,0,0,1,255.22314,133.59744Z" fill="#e6952a"/><path d="M250.81218,151.08383l-2.5191-8.56362,13.94138-6.25a7.88725,7.88725,0,0,1,6.61063.07276l14.78334,7.02224s-.05218,4.476-7.80586,4.01549c0,0-8.39345-3.94046-12.89939-2.2009Z" fill="#f9977a"/><path d="M418.44043,319.4053c-.91211-1.51856-22.374-37.28711-25.8457-46.54492l.86523-.32422c3.44336,9.17773,25.55078,46.02148,25.77344,46.39257Z" fill="#8b9d36"/><path d="M400.52045,253.2161a39.74159,39.74159,0,0,0-2.137,7.16259,66.96311,66.96311,0,0,0-1.0922,7.262,65.62946,65.62946,0,0,0-.30083,7.33723,39.20446,39.20446,0,0,0,.75433,7.43756,39.23987,39.23987,0,0,0,2.142-7.1622,65.73593,65.73593,0,0,0,1.08723-7.26247,66.96143,66.96143,0,0,0,.29586-7.33769A39.70573,39.70573,0,0,0,400.52045,253.2161Z" fill="#8b9d36"/><path d="M408.67989,264.37247a37.90624,37.90624,0,0,0-2.773,6.7533,63.66126,63.66126,0,0,0-1.74219,6.95126,62.69118,62.69118,0,0,0-.96166,7.10117,37.4918,37.4918,0,0,0,.07949,7.301,37.4572,37.4572,0,0,0,2.77793-6.75235,62.688,62.688,0,0,0,1.73722-6.95227,63.76777,63.76777,0,0,0,.9567-7.10207A37.94279,37.94279,0,0,0,408.67989,264.37247Z" fill="#8b9d36"/><path d="M413.17561,277.36047a32.16463,32.16463,0,0,0-2.36056,6.27716,53.43437,53.43437,0,0,0-1.32076,6.42554,52.53584,52.53584,0,0,0-.53435,6.53779,31.75684,31.75684,0,0,0,.51493,6.68758,31.75942,31.75942,0,0,0,2.36553-6.27648,52.44946,52.44946,0,0,0,1.31579-6.42622,53.43348,53.43348,0,0,0,.52939-6.53852A32.13275,32.13275,0,0,0,413.17561,277.36047Z" fill="#8b9d36"/><path d="M418.83717,290.32448a24.62309,24.62309,0,0,0-2.39354,5.34192,40.126,40.126,0,0,0-1.3587,5.52057,39.38265,39.38265,0,0,0-.57591,5.65574,24.337,24.337,0,0,0,.46841,5.83608,24.31914,24.31914,0,0,0,2.3985-5.34108,39.44969,39.44969,0,0,0,1.35419-5.52141,40.19227,40.19227,0,0,0,.57094-5.65659A24.62318,24.62318,0,0,0,418.83717,290.32448Z" fill="#8b9d36"/><path d="M423.83247,298.42745a22.1685,22.1685,0,0,0-2.52679,4.69041,38.22459,38.22459,0,0,0-1.58861,4.86566,43.67686,43.67686,0,0,0-.9594,4.98977c-.10389.84693-.1992,1.68912-.26244,2.54757a18.9576,18.9576,0,0,1-.27914,2.60854,5.12082,5.12082,0,0,0,.6143-.38778l.49867-.49969a9.22046,9.22046,0,0,0,.87223-1.091,17.47332,17.47332,0,0,0,1.34108-2.334,25.99022,25.99022,0,0,0,1.75981-4.92157,29.13157,29.13157,0,0,0,.82841-5.12448A19.29153,19.29153,0,0,0,423.83247,298.42745Z" fill="#8b9d36"/><path d="M395.66879,278.42585a31.86807,31.86807,0,0,0-5.62813-4.8804,52.15515,52.15515,0,0,0-6.22075-3.70949,51.23859,51.23859,0,0,0-6.66974-2.82327,31.50325,31.50325,0,0,0-7.26778-1.64118,31.49467,31.49467,0,0,0,5.625,4.886,51.24493,51.24493,0,0,0,6.22392,3.70391,52.13226,52.13226,0,0,0,6.67245,2.81767A31.86473,31.86473,0,0,0,395.66879,278.42585Z" fill="#8b9d36"/><path d="M401.19709,288.75173a39.25711,39.25711,0,0,0-6.94165-4.54423,65.36008,65.36008,0,0,0-7.4033-3.31561,64.192,64.192,0,0,0-7.75245-2.38586,38.81,38.81,0,0,0-8.21815-1.14556,38.81706,38.81706,0,0,0,6.939,4.5501,64.20142,64.20142,0,0,0,7.40555,3.30975,65.34572,65.34572,0,0,0,7.75471,2.38A39.25673,39.25673,0,0,0,401.19709,288.75173Z" fill="#8b9d36"/><path d="M407.70467,300.22932a33.47722,33.47722,0,0,0-6.25734-4.38732,55.01445,55.01445,0,0,0-6.73478-3.16469,54.03994,54.03994,0,0,0-7.09569-2.2394,33.09033,33.09033,0,0,0-7.57719-1.00508,33.10175,33.10175,0,0,0,6.25508,4.39314,54.04733,54.04733,0,0,0,6.737,3.15887,55.02162,55.02162,0,0,0,7.098,2.23358A33.47572,33.47572,0,0,0,407.70467,300.22932Z" fill="#8b9d36"/><path d="M412.84768,309.06364a25.09777,25.09777,0,0,0-5.49578-3.62,40.083,40.083,0,0,0-5.88785-2.36739,39.36383,39.36383,0,0,0-6.18507-1.41957,24.831,24.831,0,0,0-6.58076-.1551,24.82928,24.82928,0,0,0,5.494,3.62588,39.35913,39.35913,0,0,0,5.89011,2.36146,40.06254,40.06254,0,0,0,6.18642,1.41353A25.11062,25.11062,0,0,0,412.84768,309.06364Z" fill="#8b9d36"/><path d="M416.90752,316.99056a33.01,33.01,0,0,0-6.041-4.59,54.17467,54.17467,0,0,0-6.56223-3.38557,53.23182,53.23182,0,0,0-6.957-2.47416,32.63859,32.63859,0,0,0-7.48324-1.2582,32.62741,32.62741,0,0,0,6.03827,4.59578,53.21206,53.21206,0,0,0,6.56494,3.37992,54.16582,54.16582,0,0,0,6.95928,2.46829A33.00876,33.00876,0,0,0,416.90752,316.99056Z" fill="#8b9d36"/><path d="M393.8724,274.03023a23.234,23.234,0,0,0-.18023-7.41893,34.95814,34.95814,0,0,0-1.89035-6.74924,34.38388,34.38388,0,0,0-3.18581-6.242,23.00179,23.00179,0,0,0-4.91309-5.56591,22.98852,22.98852,0,0,0,.17164,7.4221,34.41536,34.41536,0,0,0,1.89848,6.74607,34.96192,34.96192,0,0,0,3.19439,6.23877A23.23783,23.23783,0,0,0,393.8724,274.03023Z" fill="#8b9d36"/><path d="M421.83691,320.917c-.00976-.61719-1.13378-61.86426-12.916-80.51954l.78125-.49414c11.92187,18.875,13.01953,78.47071,13.06055,80.99805Z" fill="#50661a"/><path d="M413.14219,248.41652a42.39312,42.39312,0,0,1-.27734-8.34237,74.99849,74.99849,0,0,1,.90158-8.09252c.43182-2.66867,1.01948-5.31081,1.71057-7.931.69019-2.63745,1.562-5.175,2.49336-7.87791a11.55857,11.55857,0,0,1,.59669,2.07408,18.48234,18.48234,0,0,1,.32613,2.10755,35.71548,35.71548,0,0,1,.1879,4.18372,53.71732,53.71732,0,0,1-.753,8.19946,59.59262,59.59262,0,0,1-1.89713,7.98361A37.53728,37.53728,0,0,1,413.14219,248.41652Z" fill="#50661a"/><path d="M398.48873,210.6778a29.97373,29.97373,0,0,1,5.21844,6.705,47.12162,47.12162,0,0,1,3.49748,7.349,46.30569,46.30569,0,0,1,2.19524,7.83653,29.651,29.651,0,0,1,.458,8.48668,29.64982,29.64982,0,0,1-5.22657-6.70192A46.2622,46.2622,0,0,1,401.142,227.001a47.11949,47.11949,0,0,1-2.18711-7.83957A29.95828,29.95828,0,0,1,398.48873,210.6778Z" fill="#50661a"/><path d="M388.66435,225.8664a69.04854,69.04854,0,0,1,6.87209,6.3321c2.12388,2.20168,4.15064,4.45259,6.13358,6.7157l5.89147,6.76115c.98831,1.10716,1.987,2.19812,3.04217,3.23149a13.89107,13.89107,0,0,0,3.595,2.71576,6.24014,6.24014,0,0,1-2.46038-.06239,11.51864,11.51864,0,0,1-2.3705-.74558,22.893,22.893,0,0,1-4.222-2.42081,41.43709,41.43709,0,0,1-6.95476-6.434,54.9023,54.9023,0,0,1-5.5265-7.54986A39.29277,39.29277,0,0,1,388.66435,225.8664Z" fill="#50661a"/><path d="M388.66435,241.055a56.875,56.875,0,0,1,8.54292,5.25424,96.78148,96.78148,0,0,1,7.66482,6.22956,95.14832,95.14832,0,0,1,7.00038,6.96769,56.23373,56.23373,0,0,1,6.1137,7.95227,56.21362,56.21362,0,0,1-8.54744-5.24961A95.0737,95.0737,0,0,1,401.778,255.975a96.77586,96.77586,0,0,1-6.99587-6.97232A56.86653,56.86653,0,0,1,388.66435,241.055Z" fill="#50661a"/><path d="M389.6635,252.9721a56.2387,56.2387,0,0,1,8.631,4.99135,95.64673,95.64673,0,0,1,7.7791,5.9892,94.00176,94.00176,0,0,1,7.13363,6.74433,55.60733,55.60733,0,0,1,6.2727,7.7516,55.57924,55.57924,0,0,1-8.63552-4.98655,93.93758,93.93758,0,0,1-7.77458-5.99394,95.64307,95.64307,0,0,1-7.12957-6.74907A56.21177,56.21177,0,0,1,389.6635,252.9721Z" fill="#50661a"/><path d="M390.3293,265.71037a52.28658,52.28658,0,0,1,8.64545,4.19405,88.54362,88.54362,0,0,1,7.86041,5.2456,87.06983,87.06983,0,0,1,7.266,6.04154,51.66721,51.66721,0,0,1,6.47325,7.1032,51.71331,51.71331,0,0,1-8.64907-4.189,87.06433,87.06433,0,0,1-7.8568-5.25068,88.60182,88.60182,0,0,1-7.26191-6.04657A52.28453,52.28453,0,0,1,390.3293,265.71037Z" fill="#50661a"/><path d="M389.6635,274.95184a58.17118,58.17118,0,0,1,9.04565,4.59284,99.08821,99.08821,0,0,1,8.252,5.63812,97.344,97.344,0,0,1,7.65173,6.42927,57.48822,57.48822,0,0,1,6.85,7.48443,57.49307,57.49307,0,0,1-9.04927-4.58782,97.345,97.345,0,0,1-8.24841-5.64315,99.069,99.069,0,0,1-7.64766-6.43423A58.1667,58.1667,0,0,1,389.6635,274.95184Z" fill="#50661a"/><path d="M387.3323,283.61051a75.83262,75.83262,0,0,1,9.45534,5.24768c3.002,1.92174,5.90637,3.9533,8.738,6.07367,2.83982,2.108,5.601,4.30574,8.31346,6.57664,2.74044,2.25142,5.32911,4.59634,8.1644,6.91862a22.86169,22.86169,0,0,1-5.29432-1.545,51.7738,51.7738,0,0,1-4.91626-2.36683,80.68947,80.68947,0,0,1-9.03481-5.87927,93.15516,93.15516,0,0,1-8.20777-6.9263A59.00567,59.00567,0,0,1,387.3323,283.61051Z" fill="#50661a"/><path d="M384.50152,292.60224a77.98819,77.98819,0,0,1,10.26749,4.87928c3.27886,1.8266,6.46106,3.78786,9.57008,5.85233q4.6642,3.09579,9.10348,6.51046,2.219,1.71216,4.39545,3.48585a39.16823,39.16823,0,0,0,4.46185,3.41652,8.61886,8.61886,0,0,1-2.88453-.4954c-.92959-.27531-1.83208-.61024-2.72463-.95861-1.78013-.70668-3.50019-1.515-5.18727-2.37152a98.44086,98.44086,0,0,1-9.72546-5.73732,111.175,111.175,0,0,1-9.05244-6.70876A68.80774,68.80774,0,0,1,384.50152,292.60224Z" fill="#50661a"/><path d="M416.01226,258.99512a46.02215,46.02215,0,0,1,1.32708-8.90461,77.33361,77.33361,0,0,1,2.55931-8.45383,76.11908,76.11908,0,0,1,3.49251-8.11268,45.52816,45.52816,0,0,1,4.73648-7.6576,45.53159,45.53159,0,0,1-1.32075,8.90677,76.11727,76.11727,0,0,1-2.56564,8.45167,77.43781,77.43781,0,0,1-3.49838,8.11054A46.0223,46.0223,0,0,1,416.01226,258.99512Z" fill="#50661a"/><path d="M417.98617,269.39276a47.02673,47.02673,0,0,1,2.5557-8.73811,79.18958,79.18958,0,0,1,3.71655-8.12629,77.8741,77.8741,0,0,1,4.59555-7.6633,46.52667,46.52667,0,0,1,5.7677-7.04566,46.52625,46.52625,0,0,1-2.54982,8.74105,77.96862,77.96862,0,0,1-3.72242,8.12335,79.28808,79.28808,0,0,1-4.601,7.66036A47.08608,47.08608,0,0,1,417.98617,269.39276Z" fill="#50661a"/><path d="M419.47993,279.44768a51.512,51.512,0,0,1,3.74094-8.77244,87.29143,87.29143,0,0,1,4.82818-8.03764,85.75992,85.75992,0,0,1,5.65162-7.48144,50.93464,50.93464,0,0,1,6.74923-6.73964,50.93044,50.93044,0,0,1-3.736,8.776,85.65748,85.65748,0,0,1-4.8336,8.03408,87.19713,87.19713,0,0,1-5.65658,7.478A51.514,51.514,0,0,1,419.47993,279.44768Z" fill="#50661a"/><path d="M420.57439,290.54093a66.42348,66.42348,0,0,1,5.35575-9.4152q2.98595-4.45612,6.37208-8.58454,3.37484-4.13768,7.14085-7.95588a65.3927,65.3927,0,0,1,8.16666-7.11737,65.38447,65.38447,0,0,1-5.35079,9.41915q-2.98593,4.45587-6.37658,8.58058-3.383,4.13166-7.14583,7.95194A66.34279,66.34279,0,0,1,420.57439,290.54093Z" fill="#50661a"/><path d="M421.46287,302.04415a67.07967,67.07967,0,0,1,6.34226-8.85007q3.45141-4.14318,7.26734-7.91868,3.80508-3.786,7.96655-7.21381a66.06674,66.06674,0,0,1,8.90021-6.27349,66.06716,66.06716,0,0,1-6.33774,8.85448q-3.45141,4.14276-7.2714,7.91428-3.81253,3.77916-7.97107,7.20934A67.05236,67.05236,0,0,1,421.46287,302.04415Z" fill="#50661a"/><path d="M422.00355,309.42006a58.45925,58.45925,0,0,1,6.89062-7.48166,99.5993,99.5993,0,0,1,7.682-6.43475,97.8391,97.8391,0,0,1,8.28094-5.64247,57.78871,57.78871,0,0,1,9.08044-4.58556,57.8042,57.8042,0,0,1-6.887,7.48664,97.9147,97.9147,0,0,1-7.6856,6.42977,99.67415,99.67415,0,0,1-8.285,5.63745A58.471,58.471,0,0,1,422.00355,309.42006Z" fill="#50661a"/><path d="M422.29987,315.58108a61.88219,61.88219,0,0,1,8.05012-6.69334q4.22244-3.00169,8.70191-5.55405,4.47247-2.56494,9.19517-4.69194a61.15987,61.15987,0,0,1,9.85329-3.54186,61.16554,61.16554,0,0,1-8.04741,6.69871q-4.22244,3.00135-8.70462,5.54863-4.47721,2.5567-9.19834,4.68657A61.89518,61.89518,0,0,1,422.29987,315.58108Z" fill="#50661a"/><path d="M422.07,319.57734a66.83535,66.83535,0,0,1,9.41831-5.42487c3.23143-1.56,6.5261-2.95,9.87452-4.19433q5.022-1.86816,10.21962-3.26305a65.86,65.86,0,0,1,10.68079-2.02066,65.86186,65.86186,0,0,1-9.416,5.43074q-4.84782,2.33955-9.87678,4.18846c-3.35022,1.23945-6.75465,2.33335-10.22187,3.25718A66.82518,66.82518,0,0,1,422.07,319.57734Z" fill="#50661a"/><path d="M423.73535,319.4053l-.793-.47657c.22266-.37109,22.33106-37.21484,25.77344-46.39257l.86523.32422C446.10938,282.11819,424.64746,317.88674,423.73535,319.4053Z" fill="#5e7c24"/><path d="M441.65513,253.2161a39.74,39.74,0,0,1,2.137,7.16259,66.96068,66.96068,0,0,1,1.09221,7.262,65.62707,65.62707,0,0,1,.30082,7.33723,39.20283,39.20283,0,0,1-.75433,7.43756,39.24062,39.24062,0,0,1-2.14194-7.1622,65.73593,65.73593,0,0,1-1.08723-7.26247,66.95894,66.95894,0,0,1-.29586-7.33769A39.70571,39.70571,0,0,1,441.65513,253.2161Z" fill="#5e7c24"/><path d="M433.4957,264.37247a37.907,37.907,0,0,1,2.773,6.7533,63.66126,63.66126,0,0,1,1.74219,6.95126,62.69118,62.69118,0,0,1,.96166,7.10117,37.49181,37.49181,0,0,1-.0795,7.301,37.45793,37.45793,0,0,1-2.77793-6.75235,62.69242,62.69242,0,0,1-1.73722-6.95227,63.76775,63.76775,0,0,1-.95669-7.10207A37.94279,37.94279,0,0,1,433.4957,264.37247Z" fill="#5e7c24"/><path d="M429,277.36047a32.164,32.164,0,0,1,2.36057,6.27716,53.43239,53.43239,0,0,1,1.32075,6.42554,52.53585,52.53585,0,0,1,.53436,6.53779,31.75751,31.75751,0,0,1-.51493,6.68758,31.7588,31.7588,0,0,1-2.36553-6.27648,52.44759,52.44759,0,0,1-1.31579-6.42622,53.43348,53.43348,0,0,1-.52939-6.53852A32.13341,32.13341,0,0,1,429,277.36047Z" fill="#5e7c24"/><path d="M423.33842,290.32448a24.62357,24.62357,0,0,1,2.39354,5.34192,40.12739,40.12739,0,0,1,1.3587,5.52057,39.38265,39.38265,0,0,1,.57591,5.65574,24.338,24.338,0,0,1-.46841,5.83608,24.31914,24.31914,0,0,1-2.3985-5.34108,39.44829,39.44829,0,0,1-1.35419-5.52141,40.19078,40.19078,0,0,1-.57094-5.65659A24.62266,24.62266,0,0,1,423.33842,290.32448Z" fill="#5e7c24"/><path d="M418.34312,298.42745a22.168,22.168,0,0,1,2.52678,4.69041,38.22465,38.22465,0,0,1,1.58862,4.86566,43.679,43.679,0,0,1,.9594,4.98977c.10389.84693.1992,1.68912.26243,2.54757a18.9592,18.9592,0,0,0,.27915,2.60854,5.12,5.12,0,0,1-.6143-.38778l-.49868-.49969a9.22138,9.22138,0,0,1-.87222-1.091,17.47448,17.47448,0,0,1-1.34109-2.334,25.99087,25.99087,0,0,1-1.7598-4.92157,29.13157,29.13157,0,0,1-.82841-5.12448A19.29153,19.29153,0,0,1,418.34312,298.42745Z" fill="#5e7c24"/><path d="M446.5068,278.42585a31.868,31.868,0,0,1,5.62812-4.8804,52.15606,52.15606,0,0,1,6.22076-3.70949,51.23859,51.23859,0,0,1,6.66974-2.82327,31.50325,31.50325,0,0,1,7.26778-1.64118,31.49438,31.49438,0,0,1-5.625,4.886,51.244,51.244,0,0,1-6.22391,3.70391,52.13286,52.13286,0,0,1-6.67245,2.81767A31.86473,31.86473,0,0,1,446.5068,278.42585Z" fill="#5e7c24"/><path d="M440.97849,288.75173a39.25755,39.25755,0,0,1,6.94166-4.54423,65.35994,65.35994,0,0,1,7.40329-3.31561,64.19215,64.19215,0,0,1,7.75246-2.38586,38.80992,38.80992,0,0,1,8.21815-1.14556,38.81742,38.81742,0,0,1-6.939,4.5501,64.20219,64.20219,0,0,1-7.40555,3.30975,65.34572,65.34572,0,0,1-7.75471,2.38A39.25673,39.25673,0,0,1,440.97849,288.75173Z" fill="#5e7c24"/><path d="M434.47091,300.22932a33.47787,33.47787,0,0,1,6.25734-4.38732,55.01389,55.01389,0,0,1,6.73479-3.16469,54.04027,54.04027,0,0,1,7.09568-2.2394,33.09041,33.09041,0,0,1,7.5772-1.00508,33.10175,33.10175,0,0,1-6.25508,4.39314,54.04733,54.04733,0,0,1-6.737,3.15887,55.02162,55.02162,0,0,1-7.098,2.23358A33.47581,33.47581,0,0,1,434.47091,300.22932Z" fill="#5e7c24"/><path d="M429.32791,309.06364a25.09729,25.09729,0,0,1,5.49578-3.62,40.083,40.083,0,0,1,5.88785-2.36739,39.36357,39.36357,0,0,1,6.18507-1.41957,24.83088,24.83088,0,0,1,6.58075-.1551,24.829,24.829,0,0,1-5.494,3.62588,39.35956,39.35956,0,0,1-5.89011,2.36146,40.0624,40.0624,0,0,1-6.18643,1.41353A25.11054,25.11054,0,0,1,429.32791,309.06364Z" fill="#5e7c24"/><path d="M425.26806,316.99056a33.01067,33.01067,0,0,1,6.041-4.59,54.17554,54.17554,0,0,1,6.56224-3.38557,53.23169,53.23169,0,0,1,6.957-2.47416,32.63876,32.63876,0,0,1,7.48325-1.2582,32.62741,32.62741,0,0,1-6.03827,4.59578,53.21219,53.21219,0,0,1-6.565,3.37992,54.16514,54.16514,0,0,1-6.95927,2.46829A33.009,33.009,0,0,1,425.26806,316.99056Z" fill="#5e7c24"/><path d="M448.30319,274.03023a23.23372,23.23372,0,0,1,.18023-7.41893,34.95812,34.95812,0,0,1,1.89034-6.74924,34.38388,34.38388,0,0,1,3.18581-6.242,23.002,23.002,0,0,1,4.9131-5.56591,22.98823,22.98823,0,0,1-.17165,7.4221,34.41465,34.41465,0,0,1-1.89847,6.74607,34.96131,34.96131,0,0,1-3.1944,6.23877A23.23756,23.23756,0,0,1,448.30319,274.03023Z" fill="#5e7c24"/><path d="M428.933,345.47273H412.21568L406.83753,316.94a1.13408,1.13408,0,0,1,1.10666-1.3496h25.26034a1.13408,1.13408,0,0,1,1.10666,1.3496Z" fill="#935b50"/><path d="M433.92264,319.0016l.38861-2.06162a1.13407,1.13407,0,0,0-1.10665-1.34961H407.94418a1.13408,1.13408,0,0,0-1.10666,1.34961l.38862,2.06162Z" fill="#d6694b"/><polygon points="413.552 337.392 410.021 333.827 413.552 330.263 417.083 333.827 413.552 337.392" fill="#d6694b"/><polygon points="420.615 337.392 417.083 333.827 420.615 330.263 424.146 333.827 420.615 337.392" fill="#d6694b"/><polygon points="427.596 337.392 424.065 333.827 427.596 330.263 431.128 333.827 427.596 337.392" fill="#d6694b"/><path d="M31.00018,107.53787V345.47273H84.79239V107.53787a2.5812,2.5812,0,0,0-2.5812-2.5812H33.58138A2.5812,2.5812,0,0,0,31.00018,107.53787Z" fill="#935b50"/><rect x="33.96859" y="148.24334" width="47.85539" height="35.54308" rx="2.5812" fill="#e19974"/><rect x="33.96859" y="108.82847" width="47.85539" height="35.54308" rx="2.5812" fill="#e19974"/><path d="M78.78418,139.8605a1.59465,1.59465,0,1,1-2.2533,2.25329,9.50567,9.50567,0,0,0,.561-.898,2.02363,2.02363,0,0,1,.32544-.46887C77.65942,140.50088,77.97327,140.42837,78.78418,139.8605Z" fill="#d6694b"/><path d="M76.53088,111.08621a1.59465,1.59465,0,1,1,2.2533,2.25329,9.541,9.541,0,0,0-.898-.56116,2.02029,2.02029,0,0,1-.46887-.32531C77.17126,112.211,77.09875,111.89712,76.53088,111.08621Z" fill="#d6694b"/><path d="M37.00842,113.3395a1.59465,1.59465,0,1,1,2.2533-2.25329,9.54248,9.54248,0,0,0-.56116.89794,2.02007,2.02007,0,0,1-.32532.46888C38.13318,112.69912,37.81934,112.77163,37.00842,113.3395Z" fill="#d6694b"/><path d="M39.26172,142.11379a1.59465,1.59465,0,1,1-2.2533-2.25329,9.53953,9.53953,0,0,0,.898.56115,2.0206,2.0206,0,0,1,.46887.32532C38.62134,140.989,38.69385,141.30288,39.26172,142.11379Z" fill="#d6694b"/><path d="M78.78418,179.27541a1.59465,1.59465,0,1,1-2.2533,2.2533,9.50567,9.50567,0,0,0,.561-.89795,2.021,2.021,0,0,1,.32544-.46887C77.65942,179.9158,77.97327,179.84329,78.78418,179.27541Z" fill="#d6694b"/><path d="M76.53088,150.501a1.59465,1.59465,0,1,1,2.2533,2.2533,9.55928,9.55928,0,0,0-.898-.561,2.02732,2.02732,0,0,1-.46887-.32532C77.17126,151.62576,77.09875,151.312,76.53088,150.501Z" fill="#d6694b"/><path d="M37.00842,152.7543a1.59465,1.59465,0,1,1,2.2533-2.2533,9.54024,9.54024,0,0,0-.56116.89807,2.0226,2.0226,0,0,1-.32532.46887C38.13318,152.11392,37.81934,152.18655,37.00842,152.7543Z" fill="#d6694b"/><path d="M39.26172,181.52871a1.59465,1.59465,0,1,1-2.2533-2.2533,9.507,9.507,0,0,0,.898.561,2.02363,2.02363,0,0,1,.46887.32544C38.62134,180.404,38.69385,180.71768,39.26172,181.52871Z" fill="#d6694b"/><rect x="33.96859" y="227.07308" width="47.85539" height="35.54308" rx="2.5812" fill="#e19974"/><rect x="33.96859" y="266.48796" width="47.85539" height="35.54308" rx="2.5812" fill="#e19974"/><rect x="50.53988" y="121.76026" width="14.71282" height="5.42051" rx="1" fill="#d6694b"/><rect x="50.53988" y="240.00488" width="14.71282" height="5.42051" rx="1" fill="#d6694b"/><rect x="50.53988" y="279.41975" width="14.71282" height="5.42051" rx="1" fill="#d6694b"/><rect x="50.53988" y="161.17513" width="14.71282" height="5.42051" rx="1" fill="#d6694b"/><path d="M78.78418,258.10513a1.59465,1.59465,0,1,1-2.2533,2.25329,9.50567,9.50567,0,0,0,.561-.898,2.02363,2.02363,0,0,1,.32544-.46887C77.65942,258.74551,77.97327,258.673,78.78418,258.10513Z" fill="#d6694b"/><path d="M76.53088,229.33083a1.59465,1.59465,0,1,1,2.2533,2.2533,9.541,9.541,0,0,0-.898-.56116,2.02029,2.02029,0,0,1-.46887-.32531C77.17126,230.45559,77.09875,230.14175,76.53088,229.33083Z" fill="#d6694b"/><path d="M37.00842,231.58413a1.59465,1.59465,0,1,1,2.2533-2.2533,9.54362,9.54362,0,0,0-.56116.898,2.02007,2.02007,0,0,1-.32532.46888C38.13318,230.94375,37.81934,231.01626,37.00842,231.58413Z" fill="#d6694b"/><path d="M39.26172,260.35842a1.59465,1.59465,0,1,1-2.2533-2.25329,9.53953,9.53953,0,0,0,.898.56115,2.02,2.02,0,0,1,.46887.32532C38.62134,259.23367,38.69385,259.54751,39.26172,260.35842Z" fill="#d6694b"/><path d="M78.78418,297.52a1.59465,1.59465,0,1,1-2.2533,2.2533,9.507,9.507,0,0,0,.561-.898,2.021,2.021,0,0,1,.32544-.46887C77.65942,298.16042,77.97327,298.08791,78.78418,297.52Z" fill="#d6694b"/><path d="M76.53088,268.74563a1.59465,1.59465,0,1,1,2.2533,2.2533,9.55928,9.55928,0,0,0-.898-.561,2.02732,2.02732,0,0,1-.46887-.32532C77.17126,269.87039,77.09875,269.55666,76.53088,268.74563Z" fill="#d6694b"/><path d="M37.00842,270.99893a1.59465,1.59465,0,1,1,2.2533-2.2533,9.52323,9.52323,0,0,0-.56116.89807,2.0226,2.0226,0,0,1-.32532.46887C38.13318,270.35854,37.81934,270.43118,37.00842,270.99893Z" fill="#d6694b"/><path d="M39.26172,299.77334a1.59465,1.59465,0,1,1-2.2533-2.2533,9.5606,9.5606,0,0,0,.898.561,2.02363,2.02363,0,0,1,.46887.32544C38.62134,298.64858,38.69385,298.9623,39.26172,299.77334Z" fill="#d6694b"/><path d="M46.60668,288.75339s26.2573.53284,30.24631-3.90394c0,0-8.59848,30.80679-2.10721,45.92154l-29.20419-3.084S48.95683,303.82782,46.60668,288.75339Z" fill="#7ca1b1"/><path d="M40.17731,292.52748s26.2573.53284,30.24632-3.904c0,0-8.59848,30.80679-2.10722,45.92154l-29.20419-3.084S42.52746,307.60191,40.17731,292.52748Z" fill="#f65b2b"/><path d="M43.4617,295.42762s26.25731.53284,30.24632-3.904c0,0-8.59848,30.8068-2.10722,45.92154l-29.20419-3.084S45.81186,310.50205,43.4617,295.42762Z" fill="#fff"/><path d="M46.67639,172.35478s26.2573.53284,30.24631-3.904c0,0-8.59848,30.80679-2.10722,45.92154l-29.20418-3.084S49.02654,187.4292,46.67639,172.35478Z" fill="#ffba55"/><path d="M40.247,176.12886s26.2573.53284,30.24632-3.90394c0,0-8.59848,30.80679-2.10722,45.92154l-29.20419-3.084S42.59717,191.20329,40.247,176.12886Z" fill="#f65b2b"/><path d="M43.53141,179.029s26.25731.53284,30.24632-3.90394c0,0-8.59848,30.80679-2.10722,45.92154l-29.20419-3.084S45.88156,194.10343,43.53141,179.029Z" fill="#fff"/><rect x="33.96859" y="305.90283" width="47.85539" height="35.54308" rx="2.5812" fill="#e19974"/><rect x="50.53988" y="318.83463" width="14.71282" height="5.42051" rx="1" fill="#d6694b"/><path d="M78.78418,336.935a1.59461,1.59461,0,1,1-2.2533,2.25317,9.49007,9.49007,0,0,0,.561-.89795,2.02625,2.02625,0,0,1,.32544-.46887C77.65942,337.57522,77.97327,337.50271,78.78418,336.935Z" fill="#d6694b"/><path d="M76.53088,308.16055a1.59464,1.59464,0,1,1,2.2533,2.25329,9.505,9.505,0,0,0-.898-.561,2.02424,2.02424,0,0,1-.46887-.32544C77.17126,309.2853,77.09875,308.97146,76.53088,308.16055Z" fill="#d6694b"/><path d="M37.00842,310.41384a1.59465,1.59465,0,1,1,2.2533-2.25329,9.541,9.541,0,0,0-.56116.89795,2.02,2.02,0,0,1-.32532.46887C38.13318,309.77346,37.81934,309.846,37.00842,310.41384Z" fill="#d6694b"/><path d="M39.26172,339.18813a1.59461,1.59461,0,1,1-2.2533-2.25317,9.5606,9.5606,0,0,0,.898.561,2.02763,2.02763,0,0,1,.46887.32531C38.62134,338.06338,38.69385,338.37722,39.26172,339.18813Z" fill="#d6694b"/><rect x="33.96859" y="187.65821" width="47.85539" height="35.54308" rx="2.5812" fill="#e19974"/><rect x="50.53988" y="200.59001" width="14.71282" height="5.42051" rx="1" fill="#d6694b"/><path d="M78.78418,218.69033a1.59465,1.59465,0,1,1-2.2533,2.2533,9.50623,9.50623,0,0,0,.561-.89807,2.02656,2.02656,0,0,1,.32544-.46888C77.65942,219.33071,77.97327,219.25808,78.78418,218.69033Z" fill="#d6694b"/><path d="M76.53088,189.91592a1.59464,1.59464,0,1,1,2.2533,2.25329,9.505,9.505,0,0,0-.898-.561,2.02363,2.02363,0,0,1-.46887-.32544C77.17126,191.04067,77.09875,190.72695,76.53088,189.91592Z" fill="#d6694b"/><path d="M37.00842,192.16921a1.59465,1.59465,0,1,1,2.2533-2.25329,9.541,9.541,0,0,0-.56116.898,2.01738,2.01738,0,0,1-.32532.46887C38.13318,191.52883,37.81934,191.60134,37.00842,192.16921Z" fill="#d6694b"/><path d="M39.26172,220.94363a1.59465,1.59465,0,1,1-2.2533-2.2533,9.5606,9.5606,0,0,0,.898.561,2.02763,2.02763,0,0,1,.46887.32531C38.62134,219.81887,38.69385,220.13259,39.26172,220.94363Z" fill="#d6694b"/><path d="M171.61781,61.49328h2.749a1.26293,1.26293,0,0,1,1.26293,1.26293V80.30446a0,0,0,0,1,0,0h-5.27483a0,0,0,0,1,0,0V62.75621A1.26293,1.26293,0,0,1,171.61781,61.49328Z" transform="translate(345.9846 141.79774) rotate(-180)" fill="#935b50"/><path d="M83.50552,61.49328h2.749a1.26293,1.26293,0,0,1,1.26293,1.26293V80.30446a0,0,0,0,1,0,0H82.24259a0,0,0,0,1,0,0V62.75621a1.26293,1.26293,0,0,1,1.26293-1.26293Z" transform="translate(169.76001 141.79774) rotate(-180)" fill="#935b50"/><path d="M68.31014,63.33781h116.805c.65315,0,1.18272-.82576,1.18272-1.84423s-.52957-1.84424-1.18272-1.84424H68.31014c-.65315,0-1.18271.82576-1.18271,1.84424S67.657,63.33781,68.31014,63.33781Z" fill="#d6694b"/><rect x="156.73926" y="56.70706" width="5.96094" height="0.7207" fill="#fff"/><rect x="156.73926" y="53.82717" width="5.96094" height="0.7207" fill="#fff"/><rect x="156.73926" y="27.91018" width="5.96094" height="0.7207" fill="#fff"/><rect x="156.73926" y="25.0303" width="5.96094" height="0.7207" fill="#fff"/><path d="M110.02853,37.548h37.28595a0,0,0,0,1,0,0v5.86273a0,0,0,0,1,0,0H110.02853a.60938.60938,0,0,1-.60938-.60938v-4.644a.60938.60938,0,0,1,.60938-.60938Z" transform="translate(151.14321 -92.17752) rotate(82.24012)" fill="#7ca1b1"/><rect x="123.26708" y="24.21406" width="5.86331" height="0.70767" transform="matrix(0.99081, -0.13524, 0.13524, 0.99081, -2.16313, 17.29235)" fill="#fff"/><rect x="123.64995" y="27.02021" width="5.86221" height="0.70767" transform="matrix(0.99081, -0.13524, 0.13524, 0.99081, -2.53911, 17.36984)" fill="#fff"/><rect x="127.09129" y="52.27656" width="5.86234" height="0.70767" transform="matrix(0.99081, -0.13524, 0.13524, 0.99081, -5.92307, 18.06726)" fill="#fff"/><rect x="127.4741" y="55.0832" width="5.86234" height="0.70767" transform="matrix(0.99081, -0.13524, 0.13524, 0.99081, -6.29912, 18.14481)" fill="#fff"/><path d="M141.7208,22.3634l0,37.28594h5.86273l0-37.28595a.60938.60938,0,0,0-.60938-.60938h-4.644A.60938.60938,0,0,0,141.7208,22.3634Z" fill="#f65b2b"/><rect x="141.7207" y="56.40627" width="5.86328" height="0.70898" fill="#fff"/><rect x="141.7207" y="53.57327" width="5.86328" height="0.70898" fill="#fff"/><rect x="141.7207" y="28.08401" width="5.86328" height="0.70898" fill="#fff"/><rect x="141.7207" y="25.251" width="5.86328" height="0.70898" fill="#fff"/><path d="M141.72789,59.64934V24.06274a.60938.60938,0,0,0-.60938-.60938h-6.68318a.60938.60938,0,0,0-.60938.60938v35.5866Z" fill="#ffba55"/><rect x="133.82617" y="55.19534" width="7.90137" height="0.70898" fill="#fff"/><rect x="129.3227" y="31.39778" width="16.90845" height="5.09803" transform="translate(171.72372 -103.83013) rotate(90)" fill="#fff"/><path d="M161.33743,22.3634l0,37.28594h-5.86273l0-37.28595a.60938.60938,0,0,1,.60938-.60938h4.644A.60938.60938,0,0,1,161.33743,22.3634Z" fill="#ffba55"/><rect x="155.47461" y="56.40627" width="5.8623" height="0.70898" fill="#fff"/><rect x="155.47461" y="53.57327" width="5.8623" height="0.70898" fill="#fff"/><rect x="155.47461" y="28.08401" width="5.86328" height="0.70898" fill="#fff"/><rect x="155.47461" y="25.251" width="5.86328" height="0.70898" fill="#fff"/><path d="M161.33033,59.64934V24.06274a.60938.60938,0,0,1,.60938-.60938h6.68318a.60938.60938,0,0,1,.60938.60938v35.5866Z" fill="#f65b2b"/><rect x="161.33008" y="55.19534" width="7.90234" height="0.70898" fill="#fff"/><rect x="156.82708" y="31.39778" width="16.90845" height="5.09803" transform="translate(199.2281 -131.3345) rotate(90)" fill="#fff"/><path d="M134.0405,37.60038h35.5866a0,0,0,0,1,0,0v7.90194a0,0,0,0,1,0,0H134.0405a.60938.60938,0,0,1-.60938-.60938V38.20976A.60938.60938,0,0,1,134.0405,37.60038Z" transform="translate(193.08046 -109.97776) rotate(90)" fill="#7ca1b1"/><rect x="147.57813" y="55.19534" width="7.90234" height="0.70898" fill="#fff"/><rect x="143.07489" y="31.39778" width="16.90845" height="5.09803" transform="translate(185.47591 -117.58232) rotate(90)" fill="#fff"/><rect x="101.41656" y="2.98179" width="1.41591" height="47.49253" transform="translate(-2.30626 42.15592) rotate(-23.07019)" fill="#935b50"/><circle cx="104.16541" cy="26.59356" r="19.1286" fill="#c0d6f2"/><path d="M119.8998,15.71949a19.11505,19.11505,0,0,1,2.95374,14.95369c-.01209.00692-.02349.01567-.03576.02223a2.22508,2.22508,0,0,1-2.20089,0,5.75176,5.75176,0,0,1-.683-1.51784c-.27529-.71979-.33317-.9546-.60714-1.13837-.34872-.234-.64164-.113-.8348-.37948-.17353-.23941-.00685-.43327-.07591-.83486a2.29266,2.29266,0,0,0-.98661-1.29013c-.65212-.52512-.98812-.46989-1.10474-.8276-.07314-.22444.00887-.40032.34578-1.14563a11.71142,11.71142,0,0,0,.68305-1.59375,3.345,3.345,0,0,0-.37942-1.89733,29.557,29.557,0,0,1-.683-3.1116c-.7684-2.916-2.102-4.03832-1.82142-4.32588C114.81532,12.27863,117.463,13.34559,119.8998,15.71949Z" fill="#a6b862"/><path d="M87.77891,16.722c1.32169-1.36016,2.583-2.11456,2.93623-1.88817.15383.0986.0531.3303.30352.91071.23969.55537.82351,1.48232,1.5179,1.51785.31111.016.45487-.15677,1.44194-.98661,1.47005-1.23582,1.72259-1.33315,1.97323-1.29019.64135.11,1.15162,1.11821.91071,1.51791-.23636.39209-1.08878.02107-1.36609.45532a1.10606,1.10606,0,0,0,.45538,1.29019,1.7676,1.7676,0,0,0,1.59376-.07591,3.02394,3.02394,0,0,0,1.59375-1.21428c.40574-.66939.28261-1.19429.60714-1.29018.294-.08685.71006.251.91071.60714.34642.615-.07487,1.06223.22766,1.5179.38967.58687,1.36961.26838,1.51785.683.13747.38431-.57449,1.02129-1.13837,1.36609-.69825.42688-.93565.2628-1.82142.60714-1.325.51505-1.236,1.05406-2.42856,1.44194-1.03585.33692-1.381.02073-1.82147.45538-.36174.357-.41824.921-.53123,2.04908-.08979.8962.01393,1.11039.0759,1.21428a1.442,1.442,0,0,0,1.51785.60714c.30259-.08028.50532-.28117.91071-.683.46471-.46068.46517-.63662.7589-.75895.452-.18815.66611.13874,1.06252,0,.52726-.18458.7377-.96922.98661-1.89732.25122-.9368.1968-1.32918.53123-1.51785.27345-.15429.44312.03283,1.06253,0a4.76738,4.76738,0,0,0,1.366-.37948,11.94337,11.94337,0,0,1,1.66966-.45532,4.994,4.994,0,0,1,2.42862.30357,5.37271,5.37271,0,0,1,2.58031,1.51784,3.85487,3.85487,0,0,1,1.13843,2.88394,3.51383,3.51383,0,0,1-1.13843,2.20084c-.8788.76776-1.46763.41075-2.2768,1.13843a3.65141,3.65141,0,0,0-1.06247,2.42855c-.02154.39422.0148.94055,1.21428,3.41518.93311,1.92514,1.17731,2.14359,1.29019,2.95984.12624.91278.07965,2.51109-.759,2.95979-.46436.24845-.69116-.11265-2.50446-.30357a10.90424,10.90424,0,0,0-2.04908-.07585c-1.02894.07038-1.15357.2507-1.74557.15176a3.6915,3.6915,0,0,1-1.74551-.91071c-.75175-.61342-.67982-.89032-1.442-1.51785a7.31106,7.31106,0,0,0-1.51779-.91071c-1.10894-.5617-1.40508-.53578-2.3527-1.06252-.8268-.45953-1.46487-.82392-1.44194-1.29018a1.0242,1.0242,0,0,1,.683-.7589c.56954-.221.88134.20612,1.3661,0a1.37505,1.37505,0,0,0,.683-1.36609c-.04227-.43235-.30737-.98374-.60714-.98662-.3797-.00362-.35966.87737-1.06252,1.29019a2.02062,2.02062,0,0,1-1.97323-.15176c-.51643-.31843-1.11931-1.0002-.98656-1.59375.10125-.45291.55139-.4999.683-1.06252.08667-.37061.01589-.88272-.22772-.98662-.458-.19535-1.41764,1.09875-1.89733,1.74557a5.26953,5.26953,0,0,0-1.29018,2.35265c-.13039.92286.1995,1.53754-.22766,1.97323a1.16707,1.16707,0,0,1-.91071.30357,1.23174,1.23174,0,0,1-.45435-.14145A19.13938,19.13938,0,0,1,87.77891,16.722Z" fill="#a6b862"/><path d="M103.27734,51.32717a25.07637,25.07637,0,0,1-9.71093-48.21,1.29785,1.29785,0,0,1,1.00195,2.39453,22.481,22.481,0,0,0,.14551,41.53907,22.33025,22.33025,0,0,0,17.20605-.06055,1.29785,1.29785,0,0,1,1.002,2.39453A24.9453,24.9453,0,0,1,103.27734,51.32717Z" fill="#935b50"/><path d="M86.49189,56.32611H101.5705V50.50789a1.65123,1.65123,0,0,1,1.65129-1.65129c.912,0,4.01028.73926,4.01028,1.65129v5.81822h12.71962a1.65129,1.65129,0,1,1,0,3.30257H86.49189a1.65129,1.65129,0,1,1,0-3.30257Z" fill="#935b50"/><rect x="112.80989" y="208.90924" width="170.84338" height="3.84773" fill="#e19974"/><rect x="119.07824" y="212.75697" width="158.30667" height="126.42546" fill="#d6694b"/><rect x="122.78856" y="216.6047" width="150.88604" height="29.6825" fill="#935b50"/><rect x="122.78856" y="246.2872" width="150.88604" height="29.6825" fill="#935b50"/><rect x="122.78856" y="275.9697" width="150.88604" height="29.6825" fill="#935b50"/><rect x="122.78856" y="305.6522" width="150.88604" height="29.6825" fill="#935b50"/><rect x="191.9103" y="318.56958" width="12.64255" height="3.84773" fill="#d6694b"/><rect x="191.9103" y="288.88708" width="12.64255" height="3.84773" fill="#d6694b"/><rect x="191.9103" y="259.20458" width="12.64255" height="3.84773" fill="#d6694b"/><rect x="191.9103" y="229.52208" width="12.64255" height="3.84773" fill="#d6694b"/><rect x="126.71263" y="339.18243" width="13.7419" height="6.04644" fill="#e19974"/><rect x="122.78809" y="245.9053" width="150.88672" height="0.76367" fill="#e19974"/><rect x="122.78809" y="275.58791" width="150.88672" height="0.76367" fill="#e19974"/><rect x="122.78809" y="305.27053" width="150.88672" height="0.76367" fill="#e19974"/><rect x="289.90943" width="171.54721" height="54.89511" rx="2.72297" transform="translate(751.36607 54.89511) rotate(-180)" fill="#c0d6f2"/><rect x="296.44456" y="42.47836" width="158.47695" height="9.8027" rx="0.87793" transform="translate(751.36607 94.75941) rotate(-180)" fill="#a2aee6"/><path d="M454.7754,56.81934H300.41166a.87792.87792,0,0,1-.83522-.60744l-2.06514-6.37675a.87793.87793,0,0,1,.83522-1.14842H452.71026a.87793.87793,0,0,1,.83522.60744l2.06513,6.37676A.87791.87791,0,0,1,454.7754,56.81934Z" fill="#dae8f7"/><path d="M298.89539,24.78245h156.0264a.439.439,0,0,0,0-.87793H298.89539a.439.439,0,0,0,0,.87793Z" fill="#a2aee6"/><rect x="303.46983" y="9.31256" width="15.68432" height="7.18864" rx="0.87793" transform="translate(622.62397 25.81377) rotate(-180)" fill="#dae8f7"/><path d="M338.11461,62.3812a61.81815,61.81815,0,0,1-2.68189,8.79046,67.04421,67.04421,0,0,1-3.81735,8.33547,54.33638,54.33638,0,0,1-11.08392,14.43875,47.836,47.836,0,0,1-7.27375,5.48858,51.66128,51.66128,0,0,1-8.25713,3.87769c-.71921.25053-1.45267.46139-2.17895.69445l-1.09248.342-1.113.26688-2.23018.52689-2.2618.37573c-1.50218.30736-3.03437.38487-4.55766.55942-.76165.10278-1.53016.077-2.296.12006l-2.302.0964a51.873,51.873,0,0,0,18.25093-2.343,46.85587,46.85587,0,0,0,8.44725-3.83012,48.41967,48.41967,0,0,0,7.45722-5.52849,53.31483,53.31483,0,0,0,11.08585-14.77105A60.46878,60.46878,0,0,0,338.11461,62.3812Z" fill="#dae8f7"/><path d="M427.43657,62.3812a60.46848,60.46848,0,0,0,5.90488,17.44017A53.31444,53.31444,0,0,0,444.4273,94.59242a48.41967,48.41967,0,0,0,7.45722,5.52849,46.85587,46.85587,0,0,0,8.44725,3.83012,51.873,51.873,0,0,0,18.25093,2.343l-2.302-.0964c-.76582-.043-1.53433-.01728-2.296-.12006-1.52329-.17455-3.05548-.25206-4.55767-.55942l-2.26179-.37573-2.23018-.52689-1.113-.26688-1.09248-.342c-.72628-.23306-1.45974-.44392-2.17895-.69445a51.66128,51.66128,0,0,1-8.25713-3.87769,47.836,47.836,0,0,1-7.27375-5.48858,54.33638,54.33638,0,0,1-11.08392-14.43875,67.04276,67.04276,0,0,1-3.81735-8.33547A61.81815,61.81815,0,0,1,427.43657,62.3812Z" fill="#dae8f7"/><path d="M370.828,66.68721a62.7867,62.7867,0,0,0-5.67812,19.26343,95.31585,95.31585,0,0,0-.84074,10.05389,43.2,43.2,0,0,0,.22291,5.06147,33.73729,33.73729,0,0,0,.95048,4.99106,29.7852,29.7852,0,0,0,11.81138,16.12534,31.02061,31.02061,0,0,0,19.19551,5.7559,31.75226,31.75226,0,0,0,9.90956-2.24278,30.388,30.388,0,0,0,4.57418-2.25517,22.87819,22.87819,0,0,0,4.02257-3.15663,19.32928,19.32928,0,0,0,3.14776-4.04192c.4022-.75479.76068-1.537,1.11777-2.31395l.43542-1.20747.35173-1.23175a22.88225,22.88225,0,0,0,.30768-10.14051,14.39314,14.39314,0,0,0-1.877-4.76279,9.483,9.483,0,0,0-3.797-3.44027,11.53608,11.53608,0,0,0-9.949.26564,10.45263,10.45263,0,0,0-3.78294,3.38136,8.74486,8.74486,0,0,0-1.59617,4.77774,8.27345,8.27345,0,0,0,1.44313,4.78878,10.4754,10.4754,0,0,0,3.74319,3.31188,10.42325,10.42325,0,0,1-3.6537-3.37131,8.11078,8.11078,0,0,1-1.31786-4.72313,8.47554,8.47554,0,0,1,1.64547-4.59923,10.07666,10.07666,0,0,1,3.714-3.18336,11.0744,11.0744,0,0,1,9.513-.14889A8.89623,8.89623,0,0,1,417.96,96.9148a13.75548,13.75548,0,0,1,1.73452,4.56873,20.00888,20.00888,0,0,1,.33919,4.92437,23.91625,23.91625,0,0,1-.72007,4.89,17.64268,17.64268,0,0,1-4.87842,8.41633,22.07224,22.07224,0,0,1-3.89,3.02775,29.56453,29.56453,0,0,1-4.45221,2.17231,31.00671,31.00671,0,0,1-9.64925,2.14827,30.18509,30.18509,0,0,1-18.69354-5.53424,29.4568,29.4568,0,0,1-11.62158-15.65659,33.09683,33.09683,0,0,1-.98841-4.87641,42.59213,42.59213,0,0,1-.27886-4.98624,97.10446,97.10446,0,0,1,.71267-10.00984A62.5716,62.5716,0,0,1,370.828,66.68721Z" fill="#dae8f7"/><path d="M463.53613,346.47268H1a1,1,0,0,1,0-2H463.53613a1,1,0,0,1,0,2Z" fill="#935b50"/></g></g></svg>